<?xml version="1.0" encoding="UTF-8" standalone="no"?>
<!-- Created with Inkscape (http://www.inkscape.org/) -->

<svg
   version="1.1"
   id="svg2"
   width="485.55066"
   height="320.98718"
   viewBox="0 0 485.55066 320.98717"
   sodipodi:docname="logo-black.svg"
   inkscape:version="1.3.2 (091e20e, 2023-11-25, custom)"
   xmlns:inkscape="http://www.inkscape.org/namespaces/inkscape"
   xmlns:sodipodi="http://sodipodi.sourceforge.net/DTD/sodipodi-0.dtd"
   xmlns="http://www.w3.org/2000/svg"
   xmlns:svg="http://www.w3.org/2000/svg">
  <defs
     id="defs6">
    <clipPath
       clipPathUnits="userSpaceOnUse"
       id="clipPath16">
      <path
         d="M 0,850.394 H 595.276 V 0 H 0 Z"
         id="path14" />
    </clipPath>
  </defs>
  <sodipodi:namedview
     id="namedview4"
     pagecolor="#ffffff"
     bordercolor="#000000"
     borderopacity="0.25"
     inkscape:showpageshadow="2"
     inkscape:pageopacity="0.0"
     inkscape:pagecheckerboard="0"
     inkscape:deskcolor="#d1d1d1"
     inkscape:zoom="1.3387912"
     inkscape:cx="139.67824"
     inkscape:cy="228.19092"
     inkscape:window-width="3200"
     inkscape:window-height="1711"
     inkscape:window-x="1911"
     inkscape:window-y="-9"
     inkscape:window-maximized="1"
     inkscape:current-layer="g10" />
  <g
     id="g8"
     inkscape:groupmode="layer"
     inkscape:label="logo graal systems-blanc"
     transform="matrix(1.3333333,0,0,-1.3333333,-153.596,823.89198)">
    <g
       id="g10"
       style="fill:#ff00ff">
      <g
         id="g12"
         clip-path="url(#clipPath16)"
         style="fill:#000000;fill-opacity:1">
        <g
           id="g18"
           transform="translate(340.9218,462.7401)"
           style="fill:#000000;fill-opacity:1">
          <path
             d="M 0,0 C 0,0 5.991,-8.203 21.752,-14.01 H 0 Z"
             style="fill:#000000;fill-opacity:1;fill-rule:nonzero;stroke:none"
             id="path20" />
        </g>
        <g
           id="g22"
           transform="translate(245.2836,451.0063)"
           style="fill:#000000;fill-opacity:1">
          <path
             d="m 0,0 h -21.9 v 58.555 c 0,28.355 15.909,39.651 37.347,39.651 h 5.302 V 76.997 h -4.15 C 5.533,76.997 0,70.772 0,58.555 Z"
             style="fill:#000000;fill-opacity:1;fill-rule:nonzero;stroke:none"
             id="path24" />
        </g>
        <g
           id="g26"
           transform="translate(437.1721,501.6833)"
           style="fill:#000000;fill-opacity:1">
          <path
             d="m 0,0 c -0.308,14.717 -6.888,29.031 -18.623,38.073 -2.04,1.629 -4.252,3.049 -6.584,4.271 -0.774,0.406 -1.628,0.661 -2.428,1.022 -1.609,0.725 -3.204,1.481 -4.898,2.024 -1.011,0.323 -2.074,0.48 -3.108,0.738 -1.558,0.389 -3.101,0.83 -4.696,1.069 -1.141,0.171 -2.3,0.173 -3.451,0.266 -1.524,0.124 -3.043,0.305 -4.571,0.294 -1.579,-0.012 -3.138,-0.228 -4.705,-0.385 -1.164,-0.116 -2.339,-0.134 -3.488,-0.331 -1.624,-0.278 -3.184,-0.775 -4.761,-1.214 -1.042,-0.291 -2.122,-0.472 -3.137,-0.834 -1.708,-0.608 -6.022,-2.196 -7.63,-3.007 -0.794,-0.4 -1.651,-0.683 -2.415,-1.132 -0.203,-0.119 -0.366,-0.294 -0.566,-0.416 3.656,-3.842 10.114,-11.562 12.046,-19.898 0.645,0.436 1.253,0.94 1.935,1.303 0.193,0.104 0.398,0.174 0.593,0.272 1.285,0.64 5.344,1.889 6.718,2.28 0.319,0.091 0.628,0.196 0.951,0.272 1.524,0.361 3.083,0.562 4.674,0.588 0.116,0.002 0.226,0.042 0.343,0.042 0.565,0 1.139,-0.076 1.71,-0.121 0.362,-0.029 0.721,-0.03 1.086,-0.077 1.114,-0.145 2.233,-0.36 3.354,-0.685 5.646,-1.703 10.148,-5.421 13.209,-10.146 1.531,-2.363 2.701,-4.977 3.475,-7.718 0.773,-2.741 1.15,-5.607 1.092,-8.474 -0.01,-1.289 -0.111,-2.575 -0.301,-3.846 -0.568,-3.813 -1.928,-7.493 -3.968,-10.722 -2.719,-4.304 -6.649,-7.806 -11.526,-9.749 -1.213,-0.486 -2.456,-0.828 -3.71,-1.08 -0.409,-0.082 -0.819,-0.108 -1.23,-0.166 -0.855,-0.121 -1.707,-0.218 -2.564,-0.238 -0.174,-0.004 -0.347,-0.048 -0.521,-0.048 -0.24,0 -0.473,0.069 -0.713,0.077 -1.157,0.037 -2.301,0.161 -3.438,0.373 -0.337,0.063 -0.672,0.101 -1.006,0.179 -1.401,0.327 -2.769,0.774 -4.09,1.355 -0.27,0.119 -0.518,0.272 -0.784,0.401 -1.072,0.52 -2.098,1.122 -3.083,1.803 -0.331,0.229 -0.656,0.452 -0.975,0.699 -1.165,0.899 -2.279,1.871 -3.262,2.994 -1.221,1.385 -2.256,2.866 -3.121,4.423 -2.595,4.669 -3.655,10.015 -3.612,15.469 0.25,15.891 -8.157,31.705 -21.527,40.285 -1.819,1.191 -3.739,2.219 -5.714,3.127 -0.655,0.3 -1.345,0.517 -2.015,0.787 -1.348,0.544 -2.702,1.073 -4.098,1.491 -0.819,0.244 -1.658,0.417 -2.489,0.618 -1.293,0.312 -2.59,0.607 -3.905,0.815 -0.892,0.14 -1.789,0.229 -2.687,0.322 -1.286,0.132 -2.574,0.229 -3.866,0.263 -1.053,0.027 -2.104,0.031 -3.156,-0.006 -0.784,-0.029 -1.567,-0.061 -2.349,-0.126 -1.193,-0.098 -2.377,-0.259 -3.558,-0.441 -0.739,-0.115 -1.482,-0.211 -2.215,-0.359 -1.276,-0.257 -2.529,-0.598 -3.777,-0.955 -0.609,-0.174 -1.23,-0.31 -1.83,-0.508 -1.83,-0.603 -3.627,-1.298 -5.36,-2.123 -13.467,-6.252 -22.933,-19.084 -25.915,-33.532 -4.232,-19.739 3.367,-41.305 20.47,-52.521 1.862,-1.25 3.831,-2.307 5.855,-3.225 0.665,-0.302 1.363,-0.509 2.042,-0.775 1.387,-0.543 2.781,-1.063 4.214,-1.455 0.823,-0.226 1.663,-0.373 2.497,-0.548 1.329,-0.279 2.662,-0.526 4.008,-0.676 0.889,-0.1 1.78,-0.149 2.672,-0.193 1.648,-0.08 3.298,-0.129 4.941,-0.018 0.219,0.014 0.439,0.011 0.658,0.03 2.048,0.17 4.074,0.519 6.07,0.989 0.333,0.079 0.668,0.151 1,0.238 1.941,0.51 3.842,1.169 5.687,1.968 0.327,0.142 0.65,0.295 0.973,0.446 1.848,0.861 3.642,1.852 5.343,3.013 0.224,0.153 0.434,0.328 0.655,0.486 1.269,0.908 2.432,1.986 3.6,3.055 -5.144,6.783 -8.159,13.753 -9.421,17.076 -0.011,-0.009 -0.022,-0.02 -0.033,-0.029 -1.223,-0.977 -2.504,-1.84 -3.847,-2.57 -0.25,-0.135 -0.507,-0.246 -0.761,-0.372 -1.334,-0.666 -2.711,-1.224 -4.144,-1.613 -0.112,-0.03 -0.216,-0.078 -0.328,-0.107 -1.496,-0.38 -3.051,-0.548 -4.638,-0.59 -0.186,-0.005 -0.356,-0.069 -0.543,-0.069 -0.165,0 -0.342,0.053 -0.508,0.057 -1.411,0.033 -2.842,0.156 -4.31,0.484 -6.243,1.328 -11.211,5.07 -14.53,10.017 -1.659,2.473 -2.906,5.247 -3.694,8.172 -0.787,2.924 -1.115,5.999 -0.937,9.072 0.053,1.515 0.226,3.02 0.513,4.496 0.863,4.428 2.752,8.598 5.491,12.025 2.74,3.427 6.33,6.11 10.596,7.562 1.422,0.483 2.919,0.831 4.485,1.023 v 0 c 0.968,0.13 1.925,0.193 2.871,0.193 0.219,0 0.427,-0.048 0.645,-0.055 0.547,-0.017 1.078,-0.081 1.615,-0.139 0.727,-0.078 1.445,-0.173 2.151,-0.324 0.531,-0.113 1.048,-0.255 1.566,-0.407 0.683,-0.201 1.35,-0.427 2.008,-0.692 0.499,-0.201 0.987,-0.415 1.469,-0.651 0.639,-0.312 1.254,-0.658 1.861,-1.028 0.455,-0.278 0.904,-0.554 1.34,-0.861 0.591,-0.418 1.149,-0.876 1.703,-1.347 0.398,-0.339 0.801,-0.665 1.178,-1.029 0.547,-0.527 1.046,-1.099 1.546,-1.676 0.324,-0.374 0.664,-0.728 0.967,-1.121 0.517,-0.672 0.972,-1.391 1.424,-2.115 0.222,-0.355 0.472,-0.685 0.678,-1.051 0.624,-1.112 1.18,-2.268 1.641,-3.472 0.424,-1.003 0.756,-2 1.019,-2.993 0.524,-1.986 0.769,-3.956 0.899,-5.923 0.259,-3.933 0.06,-7.855 0.727,-11.87 0.167,-1.004 0.388,-2.014 0.684,-3.032 2.357,-8.958 7.111,-17.149 13.722,-23.418 3.966,-3.762 8.602,-6.831 13.789,-8.96 0.001,-10e-4 0.003,-10e-4 0.005,-10e-4 1.657,-0.667 3.36,-1.184 5.077,-1.631 0.441,-0.114 0.882,-0.22 1.326,-0.32 1.625,-0.367 3.263,-0.663 4.914,-0.836 0.11,-0.012 0.22,-0.037 0.331,-0.048 1.754,-0.17 3.515,-0.197 5.27,-0.149 0.427,0.011 0.854,0.034 1.281,0.059 1.654,0.095 3.302,0.264 4.928,0.554 0.11,0.019 0.222,0.026 0.332,0.046 1.71,0.319 3.388,0.781 5.041,1.315 0.409,0.131 0.814,0.273 1.219,0.418 1.595,0.573 3.166,1.216 4.677,1.993 0.057,0.029 0.117,0.05 0.173,0.079 1.548,0.804 3.024,1.755 4.458,2.774 0.355,0.253 0.705,0.513 1.052,0.779 1.413,1.081 2.784,2.231 4.049,3.529 -0.035,-2.756 -0.084,-9.206 -0.122,-12.373 H -0.012 C 0.092,-35.055 0.075,-15.481 0,0"
             style="fill:#000000;fill-opacity:1;fill-rule:nonzero;stroke:none"
             id="path28" />
        </g>
        <path
           d="M 479.36,617.919 H 456.613 V 450.591 h 22.747 z"
           style="fill:#000000;fill-opacity:1;fill-rule:nonzero;stroke:none"
           id="path30" />
        <g
           id="g32"
           transform="translate(164.324,475.4326)"
           style="fill:#000000;fill-opacity:1">
          <path
             d="m 0,0 c -13.562,0 -24.596,11.034 -24.596,24.596 0,13.563 11.034,24.596 24.596,24.596 13.563,0 24.596,-11.033 24.596,-24.596 C 24.596,11.034 13.563,0 0,0 m 31.608,-12.972 c 10.703,9.019 17.519,22.51 17.519,37.568 0,15.046 -6.806,28.527 -17.493,37.546 5.1,4.69 9.258,10.486 12.062,17.157 L 21.082,88.801 C 17.232,79.642 8.325,73.723 -1.61,73.723 v -0.041 c -26.345,-0.855 -47.517,-22.537 -47.517,-49.086 0,-26.548 21.172,-48.231 47.517,-49.085 v -0.041 c 9.702,0 18.03,-5.695 22.031,-13.873 1.592,-3.255 2.565,-6.863 2.565,-10.724 0,-11.011 -7.32,-20.246 -17.316,-23.371 l 0.001,0.024 c -1.676,-0.517 -3.412,-0.87 -5.189,-1.038 -0.093,-0.008 -0.184,-0.021 -0.276,-0.028 -1.806,-0.15 -3.654,-0.104 -5.526,0.189 -5.74,0.898 -10.625,3.796 -14.265,7.787 h -28.191 c 5.88,-16.381 20.293,-29.149 38.665,-32.022 2.524,-0.395 5.025,-0.543 7.501,-0.533 v -0.135 c 27.089,0 49.126,22.039 49.126,49.127 0,4.786 -0.743,9.392 -2.025,13.768 -2.548,8.691 -7.384,16.412 -13.883,22.387"
             style="fill:#000000;fill-opacity:1;fill-rule:nonzero;stroke:none"
             id="path34" />
        </g>
        <g
           id="g114"
           transform="translate(236.5208,427.1677)"
           style="fill:#000000;fill-opacity:1">
          <path
             d="m 0,0 -3.194,0.919 c -2.75,0.797 -2.75,2.019 -2.75,2.422 0,1.578 1.431,2.766 3.319,2.766 1.981,0 3.269,-1.169 3.269,-2.979 v -0.64 h 7.063 v 0.64 c 0,5.522 -4.194,9.379 -10.207,9.379 -6.013,0 -10.544,-3.994 -10.544,-9.291 0,-2.994 1.362,-6.926 7.869,-8.648 l 3.481,-0.996 c 2.838,-0.866 3.169,-2.035 3.169,-2.838 0,-1.71 -1.431,-2.816 -3.644,-2.816 -2.244,0 -4.025,1.369 -4.063,3.116 l -0.006,0.628 h -7.05 v -0.641 c 0,-5.481 4.606,-9.459 10.95,-9.459 5.257,0 10.913,2.959 10.913,9.459 C 8.575,-3.216 3.688,-1.097 0,0"
             style="fill:#000000;fill-opacity:1;fill-rule:nonzero;stroke:none"
             id="path116" />
        </g>
        <g
           id="g118"
           transform="translate(271.4288,428.8022)"
           style="fill:#000000;fill-opacity:1">
          <path
             d="m 0,0 -6.538,10.079 -0.187,0.293 H -15.22 L -3.513,-6.116 V -19.573 H 3.544 V -6.197 L 15.295,10.372 H 6.85 Z"
             style="fill:#000000;fill-opacity:1;fill-rule:nonzero;stroke:none"
             id="path120" />
        </g>
        <g
           id="g122"
           transform="translate(311.412,427.1677)"
           style="fill:#000000;fill-opacity:1">
          <path
             d="m 0,0 -3.194,0.919 c -2.75,0.797 -2.75,2.019 -2.75,2.422 0,1.578 1.431,2.766 3.319,2.766 1.981,0 3.269,-1.169 3.269,-2.979 v -0.64 h 7.063 v 0.64 c 0,5.522 -4.194,9.379 -10.207,9.379 -6.013,0 -10.544,-3.994 -10.544,-9.291 0,-2.994 1.362,-6.926 7.869,-8.648 l 3.481,-0.996 c 2.838,-0.866 3.169,-2.035 3.169,-2.838 0,-1.71 -1.431,-2.816 -3.644,-2.816 -2.244,0 -4.025,1.369 -4.063,3.116 l -0.006,0.628 h -7.05 v -0.641 c 0,-5.481 4.606,-9.459 10.95,-9.459 5.257,0 10.913,2.959 10.913,9.459 C 8.575,-3.216 3.688,-1.097 0,0"
             style="fill:#000000;fill-opacity:1;fill-rule:nonzero;stroke:none"
             id="path124" />
        </g>
        <g
           id="g126"
           transform="translate(333.1069,432.7743)"
           style="fill:#000000;fill-opacity:1">
          <path
             d="m 0,0 h 7.907 v -23.545 h 7.056 V 0 H 22.87 V 6.4 H 0 Z"
             style="fill:#000000;fill-opacity:1;fill-rule:nonzero;stroke:none"
             id="path128" />
        </g>
        <g
           id="g130"
           transform="translate(378.5654,420.7549)"
           style="fill:#000000;fill-opacity:1">
          <path
             d="M 0,0 H 10.694 V 6.482 H 0 v 5.537 H 12.194 V 18.42 H -7.057 v -29.946 h 19.626 v 6.401 H 0 Z"
             style="fill:#000000;fill-opacity:1;fill-rule:nonzero;stroke:none"
             id="path132" />
        </g>
        <g
           id="g134"
           transform="translate(432.6431,439.1746)"
           style="fill:#000000;fill-opacity:1">
          <path
             d="M 0,0 -8.369,-17.935 -16.826,0 h -5.881 l -3.694,-29.945 h 7.2 l 1.894,16.16 6.288,-12.916 h 5.337 l 6.207,12.897 1.894,-16.141 h 7.2 L 5.969,0 Z"
             style="fill:#000000;fill-opacity:1;fill-rule:nonzero;stroke:none"
             id="path136" />
        </g>
        <g
           id="g138"
           transform="translate(470.5013,427.1677)"
           style="fill:#000000;fill-opacity:1">
          <path
             d="m 0,0 -3.194,0.919 c -2.75,0.797 -2.75,2.019 -2.75,2.422 0,1.578 1.431,2.766 3.319,2.766 1.981,0 3.269,-1.169 3.269,-2.979 v -0.64 h 7.063 v 0.64 c 0,5.522 -4.194,9.379 -10.207,9.379 -6.013,0 -10.544,-3.994 -10.544,-9.291 0,-2.994 1.362,-6.926 7.869,-8.648 l 3.481,-0.996 c 2.844,-0.869 3.175,-2.035 3.175,-2.838 0,-1.71 -1.431,-2.816 -3.65,-2.816 -2.244,0 -4.025,1.369 -4.063,3.116 l -0.006,0.628 h -7.05 v -0.641 c 0,-5.481 4.606,-9.459 10.95,-9.459 5.257,0 10.913,2.959 10.913,9.459 C 8.575,-3.216 3.688,-1.097 0,0"
             style="fill:#000000;fill-opacity:1;fill-rule:nonzero;stroke:none"
             id="path140" />
        </g>
      </g>
    </g>
  </g>
</svg>
